<svg xmlns="http://www.w3.org/2000/svg" width="40" height="40" viewBox="0 0 40 40">
  <g id="ig" transform="translate(-53)">
    <g id="Ellipse_2" data-name="Ellipse 2" transform="translate(53)" fill="none" stroke="#fff" stroke-width="2">
      <circle cx="20" cy="20" r="20" stroke="none"/>
      <circle cx="20" cy="20" r="19" fill="none"/>
    </g>
    <g id="instagram-logo" transform="translate(63 10)">
      <path id="Path_301" data-name="Path 301" d="M14.481,0H5.519A5.526,5.526,0,0,0,0,5.519v8.961A5.525,5.525,0,0,0,5.519,20h8.961A5.526,5.526,0,0,0,20,14.481V5.519A5.525,5.525,0,0,0,14.481,0Zm3.745,14.481a3.749,3.749,0,0,1-3.745,3.745H5.519a3.749,3.749,0,0,1-3.745-3.745V5.519A3.749,3.749,0,0,1,5.519,1.774h8.961a3.749,3.749,0,0,1,3.745,3.745v8.961Z" fill="#fff"/>
      <path id="Path_302" data-name="Path 302" d="M46.121,40.97a5.153,5.153,0,1,0,5.153,5.153A5.159,5.159,0,0,0,46.121,40.97Zm0,8.532A3.379,3.379,0,1,1,49.5,46.123,3.383,3.383,0,0,1,46.121,49.5Z" transform="translate(-36.121 -36.123)" fill="#fff"/>
      <path id="Path_303" data-name="Path 303" d="M120.222,28.251a1.3,1.3,0,1,0,.92.381A1.306,1.306,0,0,0,120.222,28.251Z" transform="translate(-104.853 -24.909)" fill="#fff"/>
    </g>
  </g>
</svg>
